<svg version="1.0" xmlns="http://www.w3.org/2000/svg" width="700pt" height="700pt" viewBox="0 0 700 700"><g transform="translate(0.000000,700.000000) scale(0.100000,-0.100000)" fill="#000" stroke="none"><path d="M1090 6990c-233-30-428-196-485-411-22-81-22-2907 0-2988 45-172 183-318 357-378 37-13 94-28 126-32 35-5-162-9-515-10l-573-1v-270-270h655 655V1507c0-1239-3-1186 63-1296 42-70 113-133 195-173l67-33h1865 1865l65 31c80 38 155 105 197 175 66 110 63 57 63 1296v1123h655 655v270 270l-572 1c-315 1-550 5-523 9 77 12 134 29 205 63 83 41 194 149 238 233 65 125 62 44 62 1619 0 1555 3 1472-56 1594-39 79-160 199-244 240-147 72 91 65-2570 67-1317 1-2420-2-2450-6zm4745-1905V3715H35e2 1165l-3 1360c-1 748 0 1366 3 1373 3 10 476 12 2337 10l2333-3V5085zM24e2 2185v-215h-215-215v215 215h215 215v-215zm660 0v-215h-215-215v215 215h215 215v-215zm650 0v-215h-210-210v215 215h210 210v-215zm660 0v-215h-215-215v215 215h215 215v-215zm660 0v-215h-215-215v215 215h215 215v-215zm-2630-650v-215h-215-215v215 215h215 215v-215zm660 0v-215h-215-215v215 215h215 215v-215zm650 0v-215h-210-210v215 215h210 210v-215zm660 0v-215h-215-215v215 215h215 215v-215zm660 0v-215h-215-215v215 215h215 215v-215zm-660-880V440h-870-870v215 215h870 870V655z"/><path d="M3120 6340c0-67-16-249-26-299l-5-24-227 6c-205 6-350 16-454 33l-38 6v-120-119l48-7c26-3 183-9 350-13l303-6-5-26c-3-14-10-102-16-196-16-245-11-228-73-256-94-43-256-159-354-252-236-226-363-478-363-722 0-195 73-319 219-377 143-55 406-7 620 113 29 17 54 29 55 27 2-2 11-36 21-76 11-39 22-77 25-82 6-10 205 44 223 60 5 4-8 62-28 129l-36 122 81 76c184 173 367 428 504 703 46 91 88 180 94 198 14 40 18 39 142-21 150-73 265-211 299-357 15-65 13-195-4-269-21-88-85-207-151-280-133-147-385-266-635-301-46-7-90-14-96-16-8-2 12-43 55-109l67-106 42 6c161 23 389 101 526 179 220 126 374 321 433 551 28 110 26 317-4 415-41 130-87 206-187 305-101 101-194 159-321 202-43 15-80 27-82 28-1 2 11 40 28 86 16 45 30 88 30 95 0 6-46 23-107 38-60 15-116 29-125 32-15 4-18-1-19-28 0-18-8-64-17-103l-17-70-150-7c-144-6-320-31-434-61l-53-15 6 62c3 33 11 118 17 189l12 127h48c132 0 647 51 922 91l147 22v119c0 65-3 118-8 118-4 0-61-11-127-24-161-33-373-62-585-80-280-24-370-29-370-20 0 25 42 256 55 304 8 30 15 58 15 63 0 4-61 7-135 7h-135v-70zm695-1052c-15-52-157-329-210-408-81-121-290-368-301-357-14 13-45 321-51 488l-6 195 84 27c117 37 218 57 334 66 166 13 157 14 150-11zm-786-359c1-105 19-268 46-434l23-140-22-17c-45-37-224-119-291-133-125-26-195-16-241 36-89 101-35 344 123 552 66 87 185 2e2 273 259l75 50 7-48c3-27 7-83 7-125z"/></g></svg>