<svg xmlns="http://www.w3.org/2000/svg" style="fill:#000" width="48" viewBox="0 0 48 48" height="48"
   ><path style="fill:#fff;fill-opacity:1;stroke:none;stroke-width:0;stroke-linecap:round;stroke-linejoin:round;stroke-miterlimit:4;stroke-dasharray:none;stroke-opacity:1;paint-order:markers stroke fill" d="M7.9999995 3.7500012h32v19h-32z"
     /><path style="fill:none" d="M0 24H24V48H0zm0 0H24V48H0z"
     /><path d="m40 26.250001c2.2.0 3.98-1.6875 3.98-3.750001L44 3.7500011C44 1.6875009 42.2 1e-6 40 1e-6H7.9999996C5.8 1e-6 4 1.6875009 4 3.7500011V22.5c0 2.062501 1.8 3.750001 3.9999996 3.750001H3.9999999e-7v3.75H48v-3.75zM7.9999996 3.7500011H40V22.5H7.9999996z" style="fill:#9f9;fill-opacity:1;stroke-width:1.93649161"
     /><text y="21" x="22.963875" style="font-style:normal;font-variant:normal;font-weight:400;font-stretch:normal;font-size:21.33333397px;line-height:1.25;font-family:sans-serif;-inkscape-font-specification:'sans-serif, Normal';font-variant-ligatures:normal;font-variant-caps:normal;font-variant-numeric:normal;font-feature-settings:normal;text-align:center;letter-spacing:0;word-spacing:0;writing-mode:lr-tb;text-anchor:middle;fill:#000;fill-opacity:1;stroke:none"
    ><tspan style="font-style:normal;font-variant:normal;font-weight:400;font-stretch:normal;font-size:21.33333397px;font-family:sans-serif;-inkscape-font-specification:'sans-serif, Normal';font-variant-ligatures:normal;font-variant-caps:normal;font-variant-numeric:normal;font-feature-settings:normal;text-align:center;writing-mode:lr-tb;text-anchor:middle" y="21" x="23.838541"
       >あ</tspan></text><path style="stroke-width:1.5" d="M36 27H12c-1.65.0-2.985 1.35-2.985 3L9 45c0 1.65 1.35 3 3 3h24c1.65.0 3-1.35 3-3V30c0-1.65-1.35-3-3-3zm-13.5 4.5h3v3h-3zm0 4.5h3v3h-3zM18 31.5h3v3h-3zm0 4.5h3v3h-3zm-1.5 3h-3v-3h3zm0-4.5h-3v-3h3zM30 45H18v-3h12zm0-6h-3v-3h3zm0-4.5h-3v-3h3zm4.5 4.5h-3v-3h3zm0-4.5h-3v-3h3z"
     /></svg>
