<?xml version="1.0" standalone="no"?>
<!DOCTYPE svg PUBLIC "-//W3C//DTD SVG 20010904//EN"
 "http://www.w3.org/TR/2001/REC-SVG-20010904/DTD/svg10.dtd">
<svg version="1.0" xmlns="http://www.w3.org/2000/svg"
 width="700.000000pt" height="700.000000pt" viewBox="0 0 700.000000 700.000000"
 preserveAspectRatio="xMidYMid meet">
<metadata>
Created by potrace 1.14, written by Peter Selinger 2001-2017
</metadata>
<g transform="translate(0.000000,700.000000) scale(0.100000,-0.100000)"
fill="#000000" stroke="none">
<path d="M1090 6990 c-233 -30 -428 -196 -485 -411 -22 -81 -22 -2907 0 -2988
45 -172 183 -318 357 -378 37 -13 94 -28 126 -32 35 -5 -162 -9 -515 -10
l-573 -1 0 -270 0 -270 655 0 655 0 0 -1123 c0 -1239 -3 -1186 63 -1296 42
-70 113 -133 195 -173 l67 -33 1865 0 1865 0 65 31 c80 38 155 105 197 175 66
110 63 57 63 1296 l0 1123 655 0 655 0 0 270 0 270 -572 1 c-315 1 -550 5
-523 9 77 12 134 29 205 63 83 41 194 149 238 233 65 125 62 44 62 1619 0
1555 3 1472 -56 1594 -39 79 -160 199 -244 240 -147 72 91 65 -2570 67 -1317
1 -2420 -2 -2450 -6z m4745 -1905 l0 -1370 -2335 0 -2335 0 -3 1360 c-1 748 0
1366 3 1373 3 10 476 12 2337 10 l2333 -3 0 -1370z m-3435 -2900 l0 -215 -215
0 -215 0 0 215 0 215 215 0 215 0 0 -215z m660 0 l0 -215 -215 0 -215 0 0 215
0 215 215 0 215 0 0 -215z m650 0 l0 -215 -210 0 -210 0 0 215 0 215 210 0
210 0 0 -215z m660 0 l0 -215 -215 0 -215 0 0 215 0 215 215 0 215 0 0 -215z
m660 0 l0 -215 -215 0 -215 0 0 215 0 215 215 0 215 0 0 -215z m-2630 -650 l0
-215 -215 0 -215 0 0 215 0 215 215 0 215 0 0 -215z m660 0 l0 -215 -215 0
-215 0 0 215 0 215 215 0 215 0 0 -215z m650 0 l0 -215 -210 0 -210 0 0 215 0
215 210 0 210 0 0 -215z m660 0 l0 -215 -215 0 -215 0 0 215 0 215 215 0 215
0 0 -215z m660 0 l0 -215 -215 0 -215 0 0 215 0 215 215 0 215 0 0 -215z
m-660 -880 l0 -215 -870 0 -870 0 0 215 0 215 870 0 870 0 0 -215z"/>
<path d="M3120 6340 c0 -67 -16 -249 -26 -299 l-5 -24 -227 6 c-205 6 -350 16
-454 33 l-38 6 0 -120 0 -119 48 -7 c26 -3 183 -9 350 -13 l303 -6 -5 -26 c-3
-14 -10 -102 -16 -196 -16 -245 -11 -228 -73 -256 -94 -43 -256 -159 -354
-252 -236 -226 -363 -478 -363 -722 0 -195 73 -319 219 -377 143 -55 406 -7
620 113 29 17 54 29 55 27 2 -2 11 -36 21 -76 11 -39 22 -77 25 -82 6 -10 205
44 223 60 5 4 -8 62 -28 129 l-36 122 81 76 c184 173 367 428 504 703 46 91
88 180 94 198 14 40 18 39 142 -21 150 -73 265 -211 299 -357 15 -65 13 -195
-4 -269 -21 -88 -85 -207 -151 -280 -133 -147 -385 -266 -635 -301 -46 -7 -90
-14 -96 -16 -8 -2 12 -43 55 -109 l67 -106 42 6 c161 23 389 101 526 179 220
126 374 321 433 551 28 110 26 317 -4 415 -41 130 -87 206 -187 305 -101 101
-194 159 -321 202 -43 15 -80 27 -82 28 -1 2 11 40 28 86 16 45 30 88 30 95 0
6 -46 23 -107 38 -60 15 -116 29 -125 32 -15 4 -18 -1 -19 -28 0 -18 -8 -64
-17 -103 l-17 -70 -150 -7 c-144 -6 -320 -31 -434 -61 l-53 -15 6 62 c3 33 11
118 17 189 l12 127 48 0 c132 0 647 51 922 91 l147 22 0 119 c0 65 -3 118 -8
118 -4 0 -61 -11 -127 -24 -161 -33 -373 -62 -585 -80 -280 -24 -370 -29 -370
-20 0 25 42 256 55 304 8 30 15 58 15 63 0 4 -61 7 -135 7 l-135 0 0 -70z
m695 -1052 c-15 -52 -157 -329 -210 -408 -81 -121 -290 -368 -301 -357 -14 13
-45 321 -51 488 l-6 195 84 27 c117 37 218 57 334 66 166 13 157 14 150 -11z
m-786 -359 c1 -105 19 -268 46 -434 l23 -140 -22 -17 c-45 -37 -224 -119 -291
-133 -125 -26 -195 -16 -241 36 -89 101 -35 344 123 552 66 87 185 200 273
259 l75 50 7 -48 c3 -27 7 -83 7 -125z"/>
</g>
</svg>
